HIERARCHY
ROOT hip
{
  OFFSET 0 0 0
  CHANNELS 6 Xposition Yposition Zposition Zrotation Yrotation Xrotation
  JOINT abdomen
  {
    OFFSET 0 20.6881 -0.73152
    CHANNELS 3 Zrotation Xrotation Yrotation
    JOINT chest
    {
      OFFSET 0 11.7043 -0.48768
      CHANNELS 3 Zrotation Xrotation Yrotation
      JOINT neck
      {
        OFFSET 0 22.1894 -2.19456
        CHANNELS 3 Zrotation Xrotation Yrotation
        JOINT head
        {
          OFFSET -0.24384 7.07133 1.2192
          CHANNELS 3 Zrotation Xrotation Yrotation
          JOINT leftEye
          {
            OFFSET 4.14528 8.04674 8.04672
            CHANNELS 3 Zrotation Xrotation Yrotation
            End Site
            {
              OFFSET 1 0 0
            }
          }
          JOINT rightEye
          {
            OFFSET -3.6576 8.04674 8.04672
            CHANNELS 3 Zrotation Xrotation Yrotation
            End Site
            {
              OFFSET 1 0 0
            }
          }
        }
      }
      JOINT rCollar
      {
        OFFSET -2.68224 19.2634 -4.8768
        CHANNELS 3 Zrotation Xrotation Yrotation
        JOINT rShldr
        {
          OFFSET -8.77824 -1.95073 1.46304
          CHANNELS 3 Zrotation Xrotation Yrotation
          JOINT rForeArm
          {
            OFFSET -28.1742 -1.7115 0.48768
            CHANNELS 3 Zrotation Xrotation Yrotation
            JOINT rHand
            {
              OFFSET -22.5879 0.773209 7.07136
              CHANNELS 3 Zrotation Xrotation Yrotation
              JOINT rThumb1
              {
                OFFSET -1.2192 -0.487915 3.41376
                CHANNELS 3 Zrotation Xrotation Yrotation
                JOINT rThumb2
                {
                  OFFSET -3.37035 -0.52449 3.41376
                  CHANNELS 3 Zrotation Xrotation Yrotation
                  End Site
                  {
                    OFFSET -1.78271 -1.18214 1.43049
                  }
                }
              }
              JOINT rIndex1
              {
                OFFSET -7.75947 0.938293 5.60832
                CHANNELS 3 Zrotation Xrotation Yrotation
                JOINT rIndex2
                {
                  OFFSET -2.54057 -0.884171 1.56538
                  CHANNELS 3 Zrotation Xrotation Yrotation
                  End Site
                  {
                    OFFSET -1.62519 -0.234802 1.16502
                  }
                }
              }
              JOINT rMid1
              {
                OFFSET -8.24714 1.18213 3.41376
                CHANNELS 3 Zrotation Xrotation Yrotation
                JOINT rMid2
                {
                  OFFSET -3.10165 -0.590103 1.0647
                  CHANNELS 3 Zrotation Xrotation Yrotation
                  End Site
                  {
                    OFFSET -2.48547 -0.328903 0.83742
                  }
                }
              }
              JOINT rRing1
              {
                OFFSET -8.82822 0.546677 1.51678
                CHANNELS 3 Zrotation Xrotation Yrotation
                JOINT rRing2
                {
                  OFFSET -2.60934 -0.819778 -0.0198488
                  CHANNELS 3 Zrotation Xrotation Yrotation
                  End Site
                  {
                    OFFSET -2.33842 -0.294052 0.168128
                  }
                }
              }
              JOINT rPinky1
              {
                OFFSET -8.27202 -0.0477905 -0.4584
                CHANNELS 3 Zrotation Xrotation Yrotation
                JOINT rPinky2
                {
                  OFFSET -1.82734 -0.647385 -0.700984
                  CHANNELS 3 Zrotation Xrotation Yrotation
                  End Site
                  {
                    OFFSET -1.69225 -0.51767 -0.607171
                  }
                }
              }
            }
          }
        }
      }
      JOINT lCollar
      {
        OFFSET 2.68224 19.2634 -4.8768
        CHANNELS 3 Zrotation Xrotation Yrotation
        JOINT lShldr
        {
          OFFSET 8.77824 -1.95073 1.46304
          CHANNELS 3 Zrotation Xrotation Yrotation
          JOINT lForeArm
          {
            OFFSET 28.1742 -1.7115 0.48768
            CHANNELS 3 Zrotation Xrotation Yrotation
            JOINT lHand
            {
              OFFSET 22.5879 0.773209 7.07136
              CHANNELS 3 Zrotation Xrotation Yrotation
              JOINT lThumb1
              {
                OFFSET 1.2192 -0.487915 3.41376
                CHANNELS 3 Zrotation Xrotation Yrotation
                JOINT lThumb2
                {
                  OFFSET 3.37035 -0.52449 3.41376
                  CHANNELS 3 Zrotation Xrotation Yrotation
                  End Site
                  {
                    OFFSET 1.78271 -1.18214 1.43049
                  }
                }
              }
              JOINT lIndex1
              {
                OFFSET 7.75947 0.938293 5.60832
                CHANNELS 3 Zrotation Xrotation Yrotation
                JOINT lIndex2
                {
                  OFFSET 2.54057 -0.884171 1.56538
                  CHANNELS 3 Zrotation Xrotation Yrotation
                  End Site
                  {
                    OFFSET 1.62519 -0.234802 1.16502
                  }
                }
              }
              JOINT lMid1
              {
                OFFSET 8.24714 1.18213 3.41376
                CHANNELS 3 Zrotation Xrotation Yrotation
                JOINT lMid2
                {
                  OFFSET 3.10165 -0.590103 1.0647
                  CHANNELS 3 Zrotation Xrotation Yrotation
                  End Site
                  {
                    OFFSET 2.48547 -0.328903 0.83742
                  }
                }
              }
              JOINT lRing1
              {
                OFFSET 8.82822 0.546677 1.51678
                CHANNELS 3 Zrotation Xrotation Yrotation
                JOINT lRing2
                {
                  OFFSET 2.60934 -0.819778 -0.0198488
                  CHANNELS 3 Zrotation Xrotation Yrotation
                  End Site
                  {
                    OFFSET 2.33842 -0.294052 0.168128
                  }
                }
              }
              JOINT lPinky1
              {
                OFFSET 8.27202 -0.0477905 -0.4584
                CHANNELS 3 Zrotation Xrotation Yrotation
                JOINT lPinky2
                {
                  OFFSET 1.82734 -0.647385 -0.700984
                  CHANNELS 3 Zrotation Xrotation Yrotation
                  End Site
                  {
                    OFFSET 1.69225 -0.51767 -0.607171
                  }
                }
              }
            }
          }
        }
      }
    }
  }
  JOINT rButtock
  {
    OFFSET -8.77824 4.35084 1.2192
    CHANNELS 3 Zrotation Xrotation Yrotation
    JOINT rThigh
    {
      OFFSET 0 -1.70687 -2.19456
      CHANNELS 3 Zrotation Xrotation Yrotation
      JOINT rShin
      {
        OFFSET 0 -36.8199 0.73152
        CHANNELS 3 Zrotation Xrotation Yrotation
        JOINT rFoot
        {
          OFFSET 0.73152 -45.1104 -5.12064
          CHANNELS 3 Zrotation Xrotation Yrotation
          End Site
          {
            OFFSET -1.1221 -3.69964 12.103
          }
        }
      }
    }
  }
  JOINT lButtock
  {
    OFFSET 8.77824 4.35084 1.2192
    CHANNELS 3 Zrotation Xrotation Yrotation
    JOINT lThigh
    {
      OFFSET 0 -1.70687 -2.19456
      CHANNELS 3 Zrotation Xrotation Yrotation
      JOINT lShin
      {
        OFFSET 0 -36.8199 0.73152
        CHANNELS 3 Zrotation Xrotation Yrotation
        JOINT lFoot
        {
          OFFSET -0.73152 -45.1104 -5.12064
          CHANNELS 3 Zrotation Xrotation Yrotation
          End Site
          {
            OFFSET 1.1221 -3.69964 12.103
          }
        }
      }
    }
  }
}
MOTION
Frames:	9
Frame Time:	0.03333
0.0 0.0 0.0 0.0 0.0 0.0 0.0 0.0 0.0 0.0 0.0 0.0 0.0 0.0 0.0 0.0 0.0 0.0 0.0 0.0 0.0 0.0 0.0 0.0 0.0 0.0 0.0 0.0 0.0 0.0 0.0 0.0 0.0 0.0 0.0 0.0 0.0 0.0 0.0 0.0 0.0 0.0 0.0 0.0 0.0 0.0 0.0 0.0 0.0 0.0 0.0 0.0 0.0 0.0 0.0 0.0 0.0 0.0 0.0 0.0 0.0 0.0 0.0 0.0 0.0 0.0 0.0 0.0 0.0 0.0 0.0 0.0 0.0 0.0 0.0 0.0 0.0 0.0 0.0 0.0 0.0 0.0 0.0 0.0 0.0 0.0 0.0 0.0 0.0 0.0 0.0 0.0 0.0 0.0 0.0 0.0 0.0 0.0 0.0 0.0 0.0 0.0 0.0 0.0 0.0 0.0 0.0 0.0 0.0 0.0 0.0 0.0 0.0 0.0 0.0 0.0 0.0 0.0 0.0 0.0 0.0 0.0 0.0 0.0 0.0 0.0 0.0 0.0 0.0 0.0 0.0 0.0
-0.0142 67.9261 -0.0088 179.110365 64.239525 -174.66027 -9.04129 3.782839 -140.389013 -2.49602 6.807473 126.272919 -1.502881 23.284656 19.25806 -7.824768 -25.484968 -81.271474 0.003279 0.0 0.000113 -0.002433 -0.0 0.000343 -85.537035 68.182794 88.68906 -66.68074 21.794593 92.605123 6.950144 9.174045 -73.468905 167.705151 -22.714931 142.967338 -174.192904 -11.857542 89.870411 -122.200744 14.62853 58.215855 166.196919 -67.455634 107.479396 131.761957 -68.319421 70.702095 7.148134 -22.393836 -2.864148 -114.34 59.289938 104.659432 -0.00489 3.475643 1.092402 10.025863 0.291716 -0.034111 -145.498914 13.104226 -142.110177 46.428731 79.980045 -10.133636 151.972047 14.764022 -157.371245 -37.152652 -73.824942 -93.904748 53.985042 -83.059586 18.342774 5.299047 24.686478 -1.398073 93.743341 37.962598 -53.548514 130.898413 -19.225106 -76.924567 173.763245 -52.872757 -119.824697 167.057139 -32.425156 -117.243517 82.839785 61.111132 -74.532654 -171.964923 -60.296677 -135.931745 -0.00416 0.917461 -0.288715 -4.988286 38.532552 -6.844145 12.006723 -23.631594 11.404507 128.300144 -29.017003 127.061348 179.993052 75.748156 0.004753 163.651401 6.812871 92.092959 71.558043 1.697784 -89.830113 -33.119764 -15.696965 20.462687 -0.000324 -0.000267 0.000416 3.518536 6.544531 116.777169 42.973726 -9.44642 159.595028 149.239629 -28.773373 -163.101987
-0.0172 67.9243 -0.0036 179.151362 64.207541 -174.639761 -12.063986 7.474561 39.766713 2.556956 -11.533668 -53.299686 8.610108 32.508704 94.162402 -35.205912 10.97763 -153.408686 -0.002002 -0.0 0.003413 0.003853 -0.0 -0.000586 -142.974016 39.431411 147.389454 -104.237384 33.446475 76.382889 -68.736221 -55.543562 -132.552883 132.835492 -62.849562 115.288781 -85.829271 38.631292 47.955539 -76.911232 -2.232483 59.402316 -152.811779 -19.873243 121.573139 -47.282341 55.212939 32.905387 0.047007 -0.138561 -0.028087 3.167257 0.194125 0.000619 -0.022604 -1.72533 -0.544213 7.055041 29.717235 4.675849 -24.991261 -37.658456 -24.061268 -158.225933 52.580365 -149.476395 155.574622 -3.976542 -161.936738 60.085744 15.062716 -1.470422 -9.580193 -25.14145 70.710889 -164.157979 -26.126427 -142.50244 171.637436 -9.31901 -89.949452 -144.653254 -47.327936 -97.680511 77.667901 43.028246 -64.538436 167.69407 -15.711397 -114.011931 160.098519 -4.901191 -142.968575 161.230104 1.251471 -142.229007 0.01648 -1.323256 0.415154 155.716237 -7.869949 -172.801812 139.225497 -4.397969 136.392106 23.877539 -39.185898 25.583965 179.999535 75.749706 0.00048 163.640849 6.841278 91.995436 74.21213 6.16231 -136.11278 -110.555808 -74.618112 -6.763964 0.000654 0.000235 -0.000841 5.734527 7.010288 -91.507034 -45.027295 -11.293294 -22.004981 -106.855676 36.625024 -152.338421
-0.0312 67.9206 -0.0069 179.272773 64.205949 -174.527936 -8.388834 4.481289 -117.916152 1.191826 7.022233 103.702057 -4.518975 23.349056 5.444038 2.370773 -26.880811 -64.436281 -0.002377 -0.0 4.7e-05 -0.002377 -0.0 4.7e-05 -158.416863 -29.366355 166.794048 -46.030246 -3.692202 -8.859531 71.661743 26.768982 -80.553978 -164.765766 49.504518 138.869432 -164.698464 -2.371863 89.585585 -134.189475 7.452983 65.643051 -166.407693 -43.367538 122.146929 -146.813252 8.639161 116.731794 89.034768 -81.393955 59.760226 144.008018 -74.519471 112.421069 -72.756718 -72.144126 -89.771797 -149.820279 -27.47832 -179.840751 -29.628261 -40.968195 -28.619145 -80.057104 -54.126988 -80.4349 85.537615 68.182582 -88.688879 -82.706006 -15.851733 -87.58948 9.610477 -11.223148 -36.263654 2.952605 17.559025 -1.111959 121.364183 30.328732 -71.957271 -12.70673 -33.834169 -25.36691 -12.217023 -21.784633 5.119117 7.295487 26.330541 -7.807755 0.220317 0.638444 -0.121662 155.965071 15.616894 -139.902115 0.022173 -1.726101 0.542106 152.918799 22.487688 -168.521554 143.939556 8.264536 140.720506 -11.530536 26.634052 -4.095754 0.001422 0.001356 0.000711 -35.224659 -65.044166 -148.657301 -84.505934 -27.012934 -82.12145 -64.662399 15.309345 -170.197878 -179.992243 75.749557 -0.008003 -147.67637 80.295616 -180.0 -30.950953 -35.992081 -127.935257 -74.061003 25.633087 -34.772582
-0.0322 67.9169 -0.015899999999999997 179.212344 64.260254 -174.550363 -10.540439 7.876077 1.020688 7.764123 -7.902998 -14.289233 -15.313507 33.916845 -78.55699 39.21458 8.22524 19.659473 -0.001104 0.0 -0.003233 -0.001236 -0.0 0.000558 0.16297 -0.990127 -0.217891 -109.253382 6.948363 -176.72785 -84.545538 -37.136968 -93.775992 24.335955 -49.872312 14.09317 -166.632591 -4.304444 89.770976 176.806538 -19.36151 92.487933 -162.919091 -37.929325 122.62952 -78.031743 57.179403 62.382187 -160.67359 -6.668069 143.244088 -172.31344 -31.361332 143.65205 -145.098178 -1.605468 -178.62459 -148.000321 -42.994849 -170.621268 -146.18487 15.332592 -142.710792 34.856318 74.528711 -0.602345 157.846318 -65.803649 -175.512859 4.847942 20.095358 54.918362 151.28633 70.959049 165.513679 5.215632 24.589213 -1.4057 -71.830844 -48.263345 -25.792607 74.060419 -85.849857 116.902698 129.577864 16.762124 -108.786498 -5.501423 4.450658 7.738179 -21.547234 -58.001462 -0.001557 7.521051 26.148079 -6.13034 -0.004078 1.688627 -0.529138 -7.311708 26.539782 -4.023478 -25.914875 79.094222 -10.832838 -40.904513 80.717514 5.429552 -179.984514 75.749103 -0.010595 164.744499 7.863833 1.829691 -33.985532 77.194949 -70.212459 124.262911 -42.474574 -142.183888 -0.00325 0.001019 -0.001625 4.584821 7.998554 -0.0 -13.011568 44.092714 -110.479048 -107.827751 27.911249 -154.086154
-0.0385 67.9169 -0.0211 179.191534 64.2474 -174.606383 -8.139325 5.890447 -80.872567 6.61786 4.422957 66.612078 -14.53035 30.295641 -57.969714 36.139059 -4.123528 2.655776 -0.001442 -0.0 0.001829 -0.001442 -0.0 0.001829 -44.918481 -86.287969 -66.526101 -177.909223 2.320061 -134.715464 -26.675102 -67.520668 9.696473 -3.217001 12.502436 0.252512 -178.719423 -16.254729 89.450744 -122.525906 16.829331 59.155504 -151.680131 -17.764464 121.237336 124.816794 -70.438811 68.929331 -39.288322 53.36624 32.877915 -35.577745 55.741954 30.28179 -132.481426 54.103683 155.535071 5.428676 -15.927971 -9.031878 1.485005 4.003171 1.360571 2.593826 0.539807 0.17623 -0.162943 -0.990024 0.218864 -76.550003 17.408742 -4.612705 0.205369 -6.803442 -39.692275 6.5219 28.365184 -1.696456 166.63147 -4.304654 -89.772277 -101.657449 -62.606839 -74.808387 161.039331 -34.782673 -122.709211 -86.214659 -69.368513 -32.457344 -23.903301 -61.333924 -1.398908 163.717744 -5.549373 -143.316275 145.114319 -0.355791 179.01492 54.787446 87.582527 -68.032192 162.613179 72.590196 150.840246 24.567748 -39.301947 24.865795 179.997908 75.750069 0.001432 164.782099 5.570547 -180.0 -18.408347 -78.163092 -103.648551 -15.78801 -52.141121 -97.949082 -179.999229 75.750069 -0.000795 -151.957519 80.356228 151.617818 -0.899823 -49.360811 -53.351297 -55.33914 44.693504 -62.501589
-0.0452 67.9159 -0.0237 179.167344 64.261313 -174.626277 -10.531935 8.030633 -0.0 7.81664 -7.776555 -13.093643 -14.692334 30.700189 -61.023391 36.628873 -2.30016 5.184989 7.9e-05 0.0 7.6e-05 7.9e-05 0.0 7.6e-05 -155.417583 -2.951558 161.718093 139.6465 5.413296 163.803168 90.763255 -30.795635 71.896161 -153.80605 61.117808 130.385278 81.971571 -50.092452 32.72244 -128.196555 25.54603 92.642207 -151.353091 -17.1581 121.133889 -159.119344 -11.03169 119.527105 -158.52072 -0.192138 142.145838 3.457447 -0.614391 0.278247 -75.673179 -72.116557 -92.828798 -78.87315 83.271179 96.715313 -75.779444 -51.666528 -74.249507 -8.189283 -23.818709 -11.095182 -0.117838 -0.713971 0.158828 -76.943647 12.08777 -4.501379 -172.957533 1.56567 -105.33724 -166.605342 -20.164581 -143.968087 166.631079 -4.305006 -89.771352 162.807288 -4.243722 -83.581002 140.683312 1.505418 -116.183105 6.978782 27.620183 1.505163 -2.100638 -6.305385 1.080729 167.892497 -19.015662 -144.281593 145.121794 1.892984 179.723253 149.554307 -38.769781 171.997296 156.383363 53.734528 150.116005 26.108273 -40.310036 26.626331 -179.998537 75.748716 -0.001203 164.73544 7.914655 1.844589 18.418235 73.793894 59.570606 160.671659 -79.442038 65.487835 179.98718 75.749688 0.008771 -154.99663 81.990337 62.794052 44.507238 -2.010605 1.834471 -57.442463 9.067633 -42.695486
-0.0513 67.9155 -0.009600000000000001 179.168505 64.271859 -174.62255 -8.437213 4.558628 -118.183448 1.139352 6.980665 104.25673 4.843361 26.09303 54.411801 -27.109209 -12.41035 -118.658871 0.002462 -0.0 -0.00076 -0.003407 -0.0 0.003271 -155.460464 -3.227969 161.776919 -24.433397 -62.321636 24.049751 114.293082 28.208992 -165.579593 -165.862876 47.867611 139.616958 -171.706234 -9.3884 89.948581 -4.862451 -51.445433 6.497663 2.324556 -3.867989 -1.260742 96.920403 -61.341595 43.352988 -161.152692 -8.160745 143.465253 -144.936397 36.104711 131.775631 -0.014622 -1.323199 -0.415569 -156.418852 -27.669107 175.094947 -10.675023 -21.645752 -10.11475 -127.605594 -29.993987 -126.37521 153.589047 -75.693251 178.258884 -5.212288 15.036577 58.805117 -62.195523 -0.110277 18.390244 165.710221 52.483756 -140.968719 171.602955 -9.286364 -89.950397 115.889594 13.758177 -53.268681 108.428089 34.16108 -91.742789 23.259711 38.396017 -9.856256 129.363951 47.297419 -118.700789 -13.465064 -29.983166 1.092093 -0.000455 0.06369 -0.020592 155.418228 -1.110746 -171.98074 53.570353 -50.239028 52.257059 -40.711392 80.539279 3.337107 -0.001562 -0.000954 -0.000781 -34.089771 -64.348715 -102.010576 -80.062371 23.623147 -145.802545 28.018649 67.325129 -119.777185 0.0 -0.000954 0.000434 3.386996 6.98861 87.468729 49.726569 2.533412 66.629681 -28.885305 65.694349 -97.478146
-0.0579 67.9148 -0.012 179.300814 64.301567 -174.492178 -8.189198 5.976408 -81.509758 6.445463 4.45292 67.532504 -14.87191 35.865552 -91.519202 38.795153 15.769108 30.24342 0.00239 0.0 0.001188 -0.003321 -0.0 0.001415 -0.049234 0.292422 0.064588 65.260393 13.832217 -3.592109 80.801508 -31.193073 70.932356 -136.075486 69.836092 114.692331 -0.441493 0.435287 0.069945 35.266653 -57.556855 -17.729864 45.281894 -63.865682 4.305434 -83.978991 50.942085 70.310061 -0.058472 0.167722 0.032274 -88.695763 64.083921 80.426154 0.004879 1.771436 0.556157 -155.992078 -8.251476 172.843628 -26.564317 -38.860557 -25.606616 -146.02091 9.793307 -142.917305 -0.058138 -0.352916 0.077854 -76.192074 17.940959 -5.401668 1.088967 -6.836404 -39.721593 6.16936 27.103653 -1.566655 -11.508225 -11.48748 0.622841 132.944472 -25.233149 -119.70323 138.493984 4.896443 -114.864697 -1.712066 13.709174 6.490307 -0.288677 -0.849936 0.159681 -3.496456 -0.791359 0.131287 73.16222 -72.143395 90.197715 -13.903311 29.735462 0.555667 156.380079 53.734062 150.1196 -0.571498 -2.593949 2.534014 -0.000957 0.000507 -0.000478 -34.106085 -64.375228 -101.921936 -70.161047 17.52846 94.464864 -63.885135 -11.076097 13.782292 -0.000957 0.000507 -0.000478 5.458533 7.581032 -53.896189 -32.278759 22.464028 99.99758 -113.878034 -15.623853 -19.598231
